# xmcd
#
# Track frame offsets:
#	150
#	15210
#	27669
#	39050
#	50875
#	62327
#	74910
#	86237
#	99322
#
# Disc length: 1435 seconds
#
# Revision: 1
# Processed by: cddbd v1.4PL0 Copyright (c) Steve Scherf et al.
# Submitted via: audiograbber 1.82.00
#
DISCID=72059909
DTITLE=Various Artist - 3 For 3
DYEAR=1900
DGENRE=Oldies
TTITLE0=The Platters - The Great Pretender
TTITLE1=The Platters - Only You
TTITLE2=The Platters - Smoke Gets In Your Eyes
TTITLE3=The Drifters - Under The Boardwalk
TTITLE4=The Drifters - Up On The Roof
TTITLE5=The Drifters - On Broadway
TTITLE6=The Coasters - Charlie Brown
TTITLE7=The Coasters - Along Came Jones
TTITLE8=The Coasters - Yakety yak
EXTD=
EXTT0=
EXTT1=
EXTT2=
EXTT3=
EXTT4=
EXTT5=
EXTT6=
EXTT7=
EXTT8=
PLAYORDER=
